<?xml version="1.0" encoding="UTF-8" standalone="no"?>
<!-- Created with Inkscape (http://www.inkscape.org/) -->

<svg
   xmlns:dc="http://purl.org/dc/elements/1.1/"
   xmlns:cc="http://creativecommons.org/ns#"
   xmlns:rdf="http://www.w3.org/1999/02/22-rdf-syntax-ns#"
   xmlns:svg="http://www.w3.org/2000/svg"
   xmlns="http://www.w3.org/2000/svg"
   xmlns:sodipodi="http://sodipodi.sourceforge.net/DTD/sodipodi-0.dtd"
   xmlns:inkscape="http://www.inkscape.org/namespaces/inkscape"
   width="744.09448819"
   height="1052.3622047"
   id="svg2"
   version="1.1"
   inkscape:version="0.48.4 r9939"
   sodipodi:docname="floppy_connect.svg">
  <defs
     id="defs4" />
  <sodipodi:namedview
     id="base"
     pagecolor="#ffffff"
     bordercolor="#666666"
     borderopacity="1.0"
     inkscape:pageopacity="0.0"
     inkscape:pageshadow="2"
     inkscape:zoom="5.12"
     inkscape:cx="412.77671"
     inkscape:cy="796.92146"
     inkscape:document-units="px"
     inkscape:current-layer="layer1"
     showgrid="true"
     inkscape:snap-object-midpoints="true"
     inkscape:window-width="958"
     inkscape:window-height="1179"
     inkscape:window-x="1600"
     inkscape:window-y="19"
     inkscape:window-maximized="0"
     showguides="true"
     inkscape:guide-bbox="true">
    <inkscape:grid
       type="xygrid"
       id="grid2985"
       empspacing="5"
       visible="true"
       enabled="true"
       snapvisiblegridlinesonly="true" />
  </sodipodi:namedview>
  <metadata
     id="metadata7">
    <rdf:RDF>
      <cc:Work
         rdf:about="">
        <dc:format>image/svg+xml</dc:format>
        <dc:type
           rdf:resource="http://purl.org/dc/dcmitype/StillImage" />
        <dc:title></dc:title>
      </cc:Work>
    </rdf:RDF>
  </metadata>
  <g
     inkscape:label="Layer 1"
     inkscape:groupmode="layer"
     id="layer1">
    <path
       sodipodi:type="arc"
       style="fill:none;stroke:#000000;stroke-width:1;stroke-linecap:round;stroke-linejoin:round;stroke-miterlimit:4;stroke-opacity:1;stroke-dasharray:none;stroke-dashoffset:0"
       id="path2987"
       sodipodi:cx="375.5"
       sodipodi:cy="277.86218"
       sodipodi:rx="0.5"
       sodipodi:ry="0.5"
       d="m 376,277.86218 a 0.5,0.5 0 1 1 -1,0 0.5,0.5 0 1 1 1,0 z"
       transform="translate(-0.5,-0.5)" />
    <path
       sodipodi:type="arc"
       style="fill:none;stroke:#000000;stroke-width:1;stroke-linecap:round;stroke-linejoin:round;stroke-miterlimit:4;stroke-opacity:1;stroke-dasharray:none;stroke-dashoffset:0"
       id="path2987-1"
       sodipodi:cx="375.5"
       sodipodi:cy="277.86218"
       sodipodi:rx="0.5"
       sodipodi:ry="0.5"
       d="m 376,277.86218 a 0.5,0.5 0 1 1 -1,0 0.5,0.5 0 1 1 1,0 z"
       transform="translate(-0.5,4.5)" />
    <path
       sodipodi:type="arc"
       style="fill:none;stroke:#000000;stroke-width:1;stroke-linecap:round;stroke-linejoin:round;stroke-miterlimit:4;stroke-opacity:1;stroke-dasharray:none;stroke-dashoffset:0"
       id="path2987-8"
       sodipodi:cx="375.5"
       sodipodi:cy="277.86218"
       sodipodi:rx="0.5"
       sodipodi:ry="0.5"
       d="m 376,277.86218 a 0.5,0.5 0 1 1 -1,0 0.5,0.5 0 1 1 1,0 z"
       transform="translate(4.5,-0.5)" />
    <path
       sodipodi:type="arc"
       style="fill:none;stroke:#000000;stroke-width:1;stroke-linecap:round;stroke-linejoin:round;stroke-miterlimit:4;stroke-opacity:1;stroke-dasharray:none;stroke-dashoffset:0"
       id="path2987-2"
       sodipodi:cx="375.5"
       sodipodi:cy="277.86218"
       sodipodi:rx="0.5"
       sodipodi:ry="0.5"
       d="m 376,277.86218 a 0.5,0.5 0 1 1 -1,0 0.5,0.5 0 1 1 1,0 z"
       transform="translate(9.5,-0.5)" />
    <path
       sodipodi:type="arc"
       style="fill:none;stroke:#000000;stroke-width:1;stroke-linecap:round;stroke-linejoin:round;stroke-miterlimit:4;stroke-opacity:1;stroke-dasharray:none;stroke-dashoffset:0"
       id="path2987-3"
       sodipodi:cx="375.5"
       sodipodi:cy="277.86218"
       sodipodi:rx="0.5"
       sodipodi:ry="0.5"
       d="m 376,277.86218 a 0.5,0.5 0 1 1 -1,0 0.5,0.5 0 1 1 1,0 z"
       transform="translate(9.5,4.5)" />
    <path
       sodipodi:type="arc"
       style="fill:none;stroke:#000000;stroke-width:1;stroke-linecap:round;stroke-linejoin:round;stroke-miterlimit:4;stroke-opacity:1;stroke-dasharray:none;stroke-dashoffset:0"
       id="path2987-0"
       sodipodi:cx="375.5"
       sodipodi:cy="277.86218"
       sodipodi:rx="0.5"
       sodipodi:ry="0.5"
       d="m 376,277.86218 a 0.5,0.5 0 1 1 -1,0 0.5,0.5 0 1 1 1,0 z"
       transform="translate(14.5,4.5)" />
    <path
       sodipodi:type="arc"
       style="fill:none;stroke:#000000;stroke-width:1;stroke-linecap:round;stroke-linejoin:round;stroke-miterlimit:4;stroke-opacity:1;stroke-dasharray:none;stroke-dashoffset:0"
       id="path2987-5"
       sodipodi:cx="375.5"
       sodipodi:cy="277.86218"
       sodipodi:rx="0.5"
       sodipodi:ry="0.5"
       d="m 376,277.86218 a 0.5,0.5 0 1 1 -1,0 0.5,0.5 0 1 1 1,0 z"
       transform="translate(14.5,-0.5)" />
    <path
       sodipodi:type="arc"
       style="fill:none;stroke:#000000;stroke-width:1;stroke-linecap:round;stroke-linejoin:round;stroke-miterlimit:4;stroke-opacity:1;stroke-dasharray:none;stroke-dashoffset:0"
       id="path2987-12"
       sodipodi:cx="375.5"
       sodipodi:cy="277.86218"
       sodipodi:rx="0.5"
       sodipodi:ry="0.5"
       d="m 376,277.86218 a 0.5,0.5 0 1 1 -1,0 0.5,0.5 0 1 1 1,0 z"
       transform="translate(19.5,-0.5)" />
    <path
       sodipodi:type="arc"
       style="fill:none;stroke:#000000;stroke-width:1;stroke-linecap:round;stroke-linejoin:round;stroke-miterlimit:4;stroke-opacity:1;stroke-dasharray:none;stroke-dashoffset:0"
       id="path2987-18"
       sodipodi:cx="375.5"
       sodipodi:cy="277.86218"
       sodipodi:rx="0.5"
       sodipodi:ry="0.5"
       d="m 376,277.86218 a 0.5,0.5 0 1 1 -1,0 0.5,0.5 0 1 1 1,0 z"
       transform="translate(19.5,4.5)" />
    <path
       sodipodi:type="arc"
       style="fill:none;stroke:#000000;stroke-width:1;stroke-linecap:round;stroke-linejoin:round;stroke-miterlimit:4;stroke-opacity:1;stroke-dasharray:none;stroke-dashoffset:0"
       id="path2987-05"
       sodipodi:cx="375.5"
       sodipodi:cy="277.86218"
       sodipodi:rx="0.5"
       sodipodi:ry="0.5"
       d="m 376,277.86218 a 0.5,0.5 0 1 1 -1,0 0.5,0.5 0 1 1 1,0 z"
       transform="translate(24.5,4.5)" />
    <path
       sodipodi:type="arc"
       style="fill:none;stroke:#000000;stroke-width:1;stroke-linecap:round;stroke-linejoin:round;stroke-miterlimit:4;stroke-opacity:1;stroke-dasharray:none;stroke-dashoffset:0"
       id="path2987-15"
       sodipodi:cx="375.5"
       sodipodi:cy="277.86218"
       sodipodi:rx="0.5"
       sodipodi:ry="0.5"
       d="m 376,277.86218 a 0.5,0.5 0 1 1 -1,0 0.5,0.5 0 1 1 1,0 z"
       transform="translate(24.5,-0.5)" />
    <path
       sodipodi:type="arc"
       style="fill:none;stroke:#000000;stroke-width:1;stroke-linecap:round;stroke-linejoin:round;stroke-miterlimit:4;stroke-opacity:1;stroke-dasharray:none;stroke-dashoffset:0"
       id="path2987-6"
       sodipodi:cx="375.5"
       sodipodi:cy="277.86218"
       sodipodi:rx="0.5"
       sodipodi:ry="0.5"
       d="m 376,277.86218 a 0.5,0.5 0 1 1 -1,0 0.5,0.5 0 1 1 1,0 z"
       transform="translate(34.5,-0.5)" />
    <path
       sodipodi:type="arc"
       style="fill:none;stroke:#000000;stroke-width:1;stroke-linecap:round;stroke-linejoin:round;stroke-miterlimit:4;stroke-opacity:1;stroke-dasharray:none;stroke-dashoffset:0"
       id="path2987-27"
       sodipodi:cx="375.5"
       sodipodi:cy="277.86218"
       sodipodi:rx="0.5"
       sodipodi:ry="0.5"
       d="m 376,277.86218 a 0.5,0.5 0 1 1 -1,0 0.5,0.5 0 1 1 1,0 z"
       transform="translate(29.5,-0.5)" />
    <path
       sodipodi:type="arc"
       style="fill:none;stroke:#000000;stroke-width:1;stroke-linecap:round;stroke-linejoin:round;stroke-miterlimit:4;stroke-opacity:1;stroke-dasharray:none;stroke-dashoffset:0"
       id="path2987-152"
       sodipodi:cx="375.5"
       sodipodi:cy="277.86218"
       sodipodi:rx="0.5"
       sodipodi:ry="0.5"
       d="m 376,277.86218 a 0.5,0.5 0 1 1 -1,0 0.5,0.5 0 1 1 1,0 z"
       transform="translate(29.5,4.5)" />
    <path
       sodipodi:type="arc"
       style="fill:none;stroke:#000000;stroke-width:1;stroke-linecap:round;stroke-linejoin:round;stroke-miterlimit:4;stroke-opacity:1;stroke-dasharray:none;stroke-dashoffset:0"
       id="path2987-7"
       sodipodi:cx="375.5"
       sodipodi:cy="277.86218"
       sodipodi:rx="0.5"
       sodipodi:ry="0.5"
       d="m 376,277.86218 a 0.5,0.5 0 1 1 -1,0 0.5,0.5 0 1 1 1,0 z"
       transform="translate(34.5,4.5)" />
    <path
       sodipodi:type="arc"
       style="fill:none;stroke:#000000;stroke-width:1;stroke-linecap:round;stroke-linejoin:round;stroke-miterlimit:4;stroke-opacity:1;stroke-dasharray:none;stroke-dashoffset:0"
       id="path2987-9"
       sodipodi:cx="375.5"
       sodipodi:cy="277.86218"
       sodipodi:rx="0.5"
       sodipodi:ry="0.5"
       d="m 376,277.86218 a 0.5,0.5 0 1 1 -1,0 0.5,0.5 0 1 1 1,0 z"
       transform="translate(39.5,4.5)" />
    <path
       sodipodi:type="arc"
       style="fill:none;stroke:#000000;stroke-width:1;stroke-linecap:round;stroke-linejoin:round;stroke-miterlimit:4;stroke-opacity:1;stroke-dasharray:none;stroke-dashoffset:0"
       id="path2987-87"
       sodipodi:cx="375.5"
       sodipodi:cy="277.86218"
       sodipodi:rx="0.5"
       sodipodi:ry="0.5"
       d="m 376,277.86218 a 0.5,0.5 0 1 1 -1,0 0.5,0.5 0 1 1 1,0 z"
       transform="translate(39.5,-0.5)" />
    <path
       sodipodi:type="arc"
       style="fill:none;stroke:#000000;stroke-width:1;stroke-linecap:round;stroke-linejoin:round;stroke-miterlimit:4;stroke-opacity:1;stroke-dasharray:none;stroke-dashoffset:0"
       id="path2987-09"
       sodipodi:cx="375.5"
       sodipodi:cy="277.86218"
       sodipodi:rx="0.5"
       sodipodi:ry="0.5"
       d="m 376,277.86218 a 0.5,0.5 0 1 1 -1,0 0.5,0.5 0 1 1 1,0 z"
       transform="translate(44.5,-0.5)" />
    <path
       sodipodi:type="arc"
       style="fill:none;stroke:#000000;stroke-width:1;stroke-linecap:round;stroke-linejoin:round;stroke-miterlimit:4;stroke-opacity:1;stroke-dasharray:none;stroke-dashoffset:0"
       id="path2987-59"
       sodipodi:cx="375.5"
       sodipodi:cy="277.86218"
       sodipodi:rx="0.5"
       sodipodi:ry="0.5"
       d="m 376,277.86218 a 0.5,0.5 0 1 1 -1,0 0.5,0.5 0 1 1 1,0 z"
       transform="translate(44.5,4.5)" />
    <path
       sodipodi:type="arc"
       style="fill:none;stroke:#000000;stroke-width:1;stroke-linecap:round;stroke-linejoin:round;stroke-miterlimit:4;stroke-opacity:1;stroke-dasharray:none;stroke-dashoffset:0"
       id="path2987-39"
       sodipodi:cx="375.5"
       sodipodi:cy="277.86218"
       sodipodi:rx="0.5"
       sodipodi:ry="0.5"
       d="m 376,277.86218 a 0.5,0.5 0 1 1 -1,0 0.5,0.5 0 1 1 1,0 z"
       transform="translate(49.5,4.5)" />
    <path
       sodipodi:type="arc"
       style="fill:none;stroke:#000000;stroke-width:1;stroke-linecap:round;stroke-linejoin:round;stroke-miterlimit:4;stroke-opacity:1;stroke-dasharray:none;stroke-dashoffset:0"
       id="path2987-180"
       sodipodi:cx="375.5"
       sodipodi:cy="277.86218"
       sodipodi:rx="0.5"
       sodipodi:ry="0.5"
       d="m 376,277.86218 a 0.5,0.5 0 1 1 -1,0 0.5,0.5 0 1 1 1,0 z"
       transform="translate(49.5,-0.5)" />
    <path
       sodipodi:type="arc"
       style="fill:none;stroke:#000000;stroke-width:1;stroke-linecap:round;stroke-linejoin:round;stroke-miterlimit:4;stroke-opacity:1;stroke-dasharray:none;stroke-dashoffset:0"
       id="path2987-31"
       sodipodi:cx="375.5"
       sodipodi:cy="277.86218"
       sodipodi:rx="0.5"
       sodipodi:ry="0.5"
       d="m 376,277.86218 a 0.5,0.5 0 1 1 -1,0 0.5,0.5 0 1 1 1,0 z"
       transform="translate(54.5,-0.5)" />
    <path
       sodipodi:type="arc"
       style="fill:none;stroke:#000000;stroke-width:1;stroke-linecap:round;stroke-linejoin:round;stroke-miterlimit:4;stroke-opacity:1;stroke-dasharray:none;stroke-dashoffset:0"
       id="path2987-00"
       sodipodi:cx="375.5"
       sodipodi:cy="277.86218"
       sodipodi:rx="0.5"
       sodipodi:ry="0.5"
       d="m 376,277.86218 a 0.5,0.5 0 1 1 -1,0 0.5,0.5 0 1 1 1,0 z"
       transform="translate(59.5,4.5)" />
    <path
       sodipodi:type="arc"
       style="fill:none;stroke:#000000;stroke-width:1;stroke-linecap:round;stroke-linejoin:round;stroke-miterlimit:4;stroke-opacity:1;stroke-dasharray:none;stroke-dashoffset:0"
       id="path2987-22"
       sodipodi:cx="375.5"
       sodipodi:cy="277.86218"
       sodipodi:rx="0.5"
       sodipodi:ry="0.5"
       d="m 376,277.86218 a 0.5,0.5 0 1 1 -1,0 0.5,0.5 0 1 1 1,0 z"
       transform="translate(54.5,4.5)" />
    <path
       sodipodi:type="arc"
       style="fill:none;stroke:#000000;stroke-width:1;stroke-linecap:round;stroke-linejoin:round;stroke-miterlimit:4;stroke-opacity:1;stroke-dasharray:none;stroke-dashoffset:0"
       id="path2987-4"
       sodipodi:cx="375.5"
       sodipodi:cy="277.86218"
       sodipodi:rx="0.5"
       sodipodi:ry="0.5"
       d="m 376,277.86218 a 0.5,0.5 0 1 1 -1,0 0.5,0.5 0 1 1 1,0 z"
       transform="translate(59.5,-0.5)" />
    <path
       sodipodi:type="arc"
       style="fill:none;stroke:#000000;stroke-width:1;stroke-linecap:round;stroke-linejoin:round;stroke-miterlimit:4;stroke-opacity:1;stroke-dasharray:none;stroke-dashoffset:0"
       id="path2987-23"
       sodipodi:cx="375.5"
       sodipodi:cy="277.86218"
       sodipodi:rx="0.5"
       sodipodi:ry="0.5"
       d="m 376,277.86218 a 0.5,0.5 0 1 1 -1,0 0.5,0.5 0 1 1 1,0 z"
       transform="translate(69.5,-0.5)" />
    <path
       sodipodi:type="arc"
       style="fill:none;stroke:#000000;stroke-width:1;stroke-linecap:round;stroke-linejoin:round;stroke-miterlimit:4;stroke-opacity:1;stroke-dasharray:none;stroke-dashoffset:0"
       id="path2987-95"
       sodipodi:cx="375.5"
       sodipodi:cy="277.86218"
       sodipodi:rx="0.5"
       sodipodi:ry="0.5"
       d="m 376,277.86218 a 0.5,0.5 0 1 1 -1,0 0.5,0.5 0 1 1 1,0 z"
       transform="translate(64.5,4.5)" />
    <path
       sodipodi:type="arc"
       style="fill:none;stroke:#000000;stroke-width:1;stroke-linecap:round;stroke-linejoin:round;stroke-miterlimit:4;stroke-opacity:1;stroke-dasharray:none;stroke-dashoffset:0"
       id="path2987-08"
       sodipodi:cx="375.5"
       sodipodi:cy="277.86218"
       sodipodi:rx="0.5"
       sodipodi:ry="0.5"
       d="m 376,277.86218 a 0.5,0.5 0 1 1 -1,0 0.5,0.5 0 1 1 1,0 z"
       transform="translate(69.5,4.5)" />
    <path
       sodipodi:type="arc"
       style="fill:none;stroke:#000000;stroke-width:1;stroke-linecap:round;stroke-linejoin:round;stroke-miterlimit:4;stroke-opacity:1;stroke-dasharray:none;stroke-dashoffset:0"
       id="path2987-89"
       sodipodi:cx="375.5"
       sodipodi:cy="277.86218"
       sodipodi:rx="0.5"
       sodipodi:ry="0.5"
       d="m 376,277.86218 a 0.5,0.5 0 1 1 -1,0 0.5,0.5 0 1 1 1,0 z"
       transform="translate(64.5,-0.5)" />
    <path
       sodipodi:type="arc"
       style="fill:none;stroke:#000000;stroke-width:1;stroke-linecap:round;stroke-linejoin:round;stroke-miterlimit:4;stroke-opacity:1;stroke-dasharray:none;stroke-dashoffset:0"
       id="path2987-951"
       sodipodi:cx="375.5"
       sodipodi:cy="277.86218"
       sodipodi:rx="0.5"
       sodipodi:ry="0.5"
       d="m 376,277.86218 a 0.5,0.5 0 1 1 -1,0 0.5,0.5 0 1 1 1,0 z"
       transform="translate(74.5,-0.5)" />
    <path
       sodipodi:type="arc"
       style="fill:none;stroke:#000000;stroke-width:1;stroke-linecap:round;stroke-linejoin:round;stroke-miterlimit:4;stroke-opacity:1;stroke-dasharray:none;stroke-dashoffset:0"
       id="path2987-84"
       sodipodi:cx="375.5"
       sodipodi:cy="277.86218"
       sodipodi:rx="0.5"
       sodipodi:ry="0.5"
       d="m 376,277.86218 a 0.5,0.5 0 1 1 -1,0 0.5,0.5 0 1 1 1,0 z"
       transform="translate(79.5,-0.5)" />
    <path
       sodipodi:type="arc"
       style="fill:none;stroke:#000000;stroke-width:1;stroke-linecap:round;stroke-linejoin:round;stroke-miterlimit:4;stroke-opacity:1;stroke-dasharray:none;stroke-dashoffset:0"
       id="path2987-97"
       sodipodi:cx="375.5"
       sodipodi:cy="277.86218"
       sodipodi:rx="0.5"
       sodipodi:ry="0.5"
       d="m 376,277.86218 a 0.5,0.5 0 1 1 -1,0 0.5,0.5 0 1 1 1,0 z"
       transform="translate(79.5,4.5)" />
    <path
       sodipodi:type="arc"
       style="fill:none;stroke:#000000;stroke-width:1;stroke-linecap:round;stroke-linejoin:round;stroke-miterlimit:4;stroke-opacity:1;stroke-dasharray:none;stroke-dashoffset:0"
       id="path2987-60"
       sodipodi:cx="375.5"
       sodipodi:cy="277.86218"
       sodipodi:rx="0.5"
       sodipodi:ry="0.5"
       d="m 376,277.86218 a 0.5,0.5 0 1 1 -1,0 0.5,0.5 0 1 1 1,0 z"
       transform="translate(74.5,4.5)" />
    <text
       xml:space="preserve"
       style="font-size:6px;font-style:normal;font-weight:normal;line-height:125%;letter-spacing:0px;word-spacing:0px;fill:#000000;fill-opacity:1;stroke:none;font-family:Sans"
       x="-270.36218"
       y="402"
       id="text3259"
       sodipodi:linespacing="125%"
       transform="matrix(0,-1,1,0,0,0)"><tspan
         sodipodi:role="line"
         id="tspan3261"
         x="-270.36218"
         y="402">Drive Select B</tspan></text>
    <text
       xml:space="preserve"
       style="font-size:6px;font-style:normal;font-weight:normal;line-height:125%;letter-spacing:0px;word-spacing:0px;fill:#000000;fill-opacity:1;stroke:none;font-family:Sans"
       x="-270.36218"
       y="417"
       id="text3263"
       sodipodi:linespacing="125%"
       transform="matrix(0,-1,1,0,0,0)"><tspan
         sodipodi:role="line"
         id="tspan3265"
         x="-270.36218"
         y="417">Dir</tspan></text>
    <text
       xml:space="preserve"
       style="font-size:6px;font-style:normal;font-weight:normal;line-height:125%;letter-spacing:0px;word-spacing:0px;fill:#000000;fill-opacity:1;stroke:none;font-family:Sans"
       x="-270.36218"
       y="422"
       id="text3267"
       sodipodi:linespacing="125%"
       transform="matrix(0,-1,1,0,0,0)"><tspan
         sodipodi:role="line"
         id="tspan3269"
         x="-270.36218"
         y="422">Step</tspan></text>
    <text
       xml:space="preserve"
       style="font-size:6px;font-style:normal;font-weight:normal;line-height:125%;letter-spacing:0px;word-spacing:0px;fill:#000000;fill-opacity:1;stroke:none;font-family:Sans"
       x="-303.36218"
       y="377"
       id="text3022"
       sodipodi:linespacing="125%"
       transform="matrix(0,-1,1,0,0,0)"><tspan
         sodipodi:role="line"
         id="tspan3024"
         x="-303.36218"
         y="377">GND</tspan></text>
    <text
       xml:space="preserve"
       style="font-size:6px;font-style:normal;font-weight:normal;line-height:125%;letter-spacing:0px;word-spacing:0px;fill:#000000;fill-opacity:1;stroke:none;font-family:Sans"
       x="-303.36218"
       y="387"
       id="text3022-3"
       sodipodi:linespacing="125%"
       transform="matrix(0,-1,1,0,0,0)"><tspan
         sodipodi:role="line"
         id="tspan3024-1"
         x="-303.36218"
         y="387">GND</tspan></text>
    <text
       xml:space="preserve"
       style="font-size:6px;font-style:normal;font-weight:normal;line-height:125%;letter-spacing:0px;word-spacing:0px;fill:#000000;fill-opacity:1;stroke:none;font-family:Sans"
       x="-303.36218"
       y="392"
       id="text3022-2"
       sodipodi:linespacing="125%"
       transform="matrix(0,-1,1,0,0,0)"><tspan
         sodipodi:role="line"
         id="tspan3024-6"
         x="-303.36218"
         y="392">GND</tspan></text>
    <text
       xml:space="preserve"
       style="font-size:6px;font-style:normal;font-weight:normal;line-height:125%;letter-spacing:0px;word-spacing:0px;fill:#000000;fill-opacity:1;stroke:none;font-family:Sans"
       x="-303.36218"
       y="397"
       id="text3022-24"
       sodipodi:linespacing="125%"
       transform="matrix(0,-1,1,0,0,0)"><tspan
         sodipodi:role="line"
         id="tspan3024-10"
         x="-303.36218"
         y="397">GND</tspan></text>
    <text
       xml:space="preserve"
       style="font-size:6px;font-style:normal;font-weight:normal;line-height:125%;letter-spacing:0px;word-spacing:0px;fill:#000000;fill-opacity:1;stroke:none;font-family:Sans"
       x="-303.36218"
       y="402"
       id="text3022-1"
       sodipodi:linespacing="125%"
       transform="matrix(0,-1,1,0,0,0)"><tspan
         sodipodi:role="line"
         id="tspan3024-8"
         x="-303.36218"
         y="402">GND</tspan></text>
    <text
       xml:space="preserve"
       style="font-size:6px;font-style:normal;font-weight:normal;line-height:125%;letter-spacing:0px;word-spacing:0px;fill:#000000;fill-opacity:1;stroke:none;font-family:Sans"
       x="-303.36218"
       y="407"
       id="text3022-7"
       sodipodi:linespacing="125%"
       transform="matrix(0,-1,1,0,0,0)"><tspan
         sodipodi:role="line"
         id="tspan3024-0"
         x="-303.36218"
         y="407">GND</tspan></text>
    <text
       xml:space="preserve"
       style="font-size:6px;font-style:normal;font-weight:normal;line-height:125%;letter-spacing:0px;word-spacing:0px;fill:#000000;fill-opacity:1;stroke:none;font-family:Sans"
       x="-303.36218"
       y="412"
       id="text3022-22"
       sodipodi:linespacing="125%"
       transform="matrix(0,-1,1,0,0,0)"><tspan
         sodipodi:role="line"
         id="tspan3024-65"
         x="-303.36218"
         y="412">GND</tspan></text>
    <text
       xml:space="preserve"
       style="font-size:6px;font-style:normal;font-weight:normal;line-height:125%;letter-spacing:0px;word-spacing:0px;fill:#000000;fill-opacity:1;stroke:none;font-family:Sans"
       x="-303.36218"
       y="417"
       id="text3022-5"
       sodipodi:linespacing="125%"
       transform="matrix(0,-1,1,0,0,0)"><tspan
         sodipodi:role="line"
         id="tspan3024-4"
         x="-303.36218"
         y="417">GND</tspan></text>
    <text
       xml:space="preserve"
       style="font-size:6px;font-style:normal;font-weight:normal;line-height:125%;letter-spacing:0px;word-spacing:0px;fill:#000000;fill-opacity:1;stroke:none;font-family:Sans"
       x="-303.36218"
       y="422"
       id="text3022-15"
       sodipodi:linespacing="125%"
       transform="matrix(0,-1,1,0,0,0)"><tspan
         sodipodi:role="line"
         id="tspan3024-9"
         x="-303.36218"
         y="422">GND</tspan></text>
    <text
       xml:space="preserve"
       style="font-size:6px;font-style:normal;font-weight:normal;line-height:125%;letter-spacing:0px;word-spacing:0px;fill:#000000;fill-opacity:1;stroke:none;font-family:Sans"
       x="-303.36218"
       y="427"
       id="text3022-10"
       sodipodi:linespacing="125%"
       transform="matrix(0,-1,1,0,0,0)"><tspan
         sodipodi:role="line"
         id="tspan3024-7"
         x="-303.36218"
         y="427">GND</tspan></text>
    <text
       xml:space="preserve"
       style="font-size:6px;font-style:normal;font-weight:normal;line-height:125%;letter-spacing:0px;word-spacing:0px;fill:#000000;fill-opacity:1;stroke:none;font-family:Sans"
       x="-303.36218"
       y="432"
       id="text3022-4"
       sodipodi:linespacing="125%"
       transform="matrix(0,-1,1,0,0,0)"><tspan
         sodipodi:role="line"
         id="tspan3024-04"
         x="-303.36218"
         y="432">GND</tspan></text>
    <text
       xml:space="preserve"
       style="font-size:6px;font-style:normal;font-weight:normal;line-height:125%;letter-spacing:0px;word-spacing:0px;fill:#000000;fill-opacity:1;stroke:none;font-family:Sans"
       x="-303.36218"
       y="437"
       id="text3022-47"
       sodipodi:linespacing="125%"
       transform="matrix(0,-1,1,0,0,0)"><tspan
         sodipodi:role="line"
         id="tspan3024-81"
         x="-303.36218"
         y="437">GND</tspan></text>
    <text
       xml:space="preserve"
       style="font-size:6px;font-style:normal;font-weight:normal;line-height:125%;letter-spacing:0px;word-spacing:0px;fill:#000000;fill-opacity:1;stroke:none;font-family:Sans"
       x="-303.36218"
       y="442"
       id="text3022-223"
       sodipodi:linespacing="125%"
       transform="matrix(0,-1,1,0,0,0)"><tspan
         sodipodi:role="line"
         id="tspan3024-86"
         x="-303.36218"
         y="442">GND</tspan></text>
    <text
       xml:space="preserve"
       style="font-size:6px;font-style:normal;font-weight:normal;line-height:125%;letter-spacing:0px;word-spacing:0px;fill:#000000;fill-opacity:1;stroke:none;font-family:Sans"
       x="-303.36218"
       y="447"
       id="text3022-8"
       sodipodi:linespacing="125%"
       transform="matrix(0,-1,1,0,0,0)"><tspan
         sodipodi:role="line"
         id="tspan3024-96"
         x="-303.36218"
         y="447">GND</tspan></text>
    <text
       xml:space="preserve"
       style="font-size:6px;font-style:normal;font-weight:normal;line-height:125%;letter-spacing:0px;word-spacing:0px;fill:#000000;fill-opacity:1;stroke:none;font-family:Sans"
       x="-303.36218"
       y="452"
       id="text3022-9"
       sodipodi:linespacing="125%"
       transform="matrix(0,-1,1,0,0,0)"><tspan
         sodipodi:role="line"
         id="tspan3024-06"
         x="-303.36218"
         y="452">GND</tspan></text>
    <text
       xml:space="preserve"
       style="font-size:6px;font-style:normal;font-weight:normal;line-height:125%;letter-spacing:0px;word-spacing:0px;fill:#000000;fill-opacity:1;stroke:none;font-family:Sans"
       x="-303.36218"
       y="457"
       id="text3022-0"
       sodipodi:linespacing="125%"
       transform="matrix(0,-1,1,0,0,0)"><tspan
         sodipodi:role="line"
         id="tspan3024-2"
         x="-303.36218"
         y="457">GND</tspan></text>
    <text
       xml:space="preserve"
       style="font-size:6px;font-style:normal;font-weight:normal;line-height:125%;letter-spacing:0px;word-spacing:0px;fill:#bfbfbf;fill-opacity:1;stroke:none;font-family:Sans"
       x="-270.36218"
       y="377"
       id="text3173"
       sodipodi:linespacing="125%"
       transform="matrix(0,-1,1,0,0,0)"><tspan
         sodipodi:role="line"
         x="-270.36218"
         y="377"
         id="tspan3177">RedWC</tspan></text>
    <text
       xml:space="preserve"
       style="font-size:6px;font-style:normal;font-weight:normal;line-height:125%;letter-spacing:0px;word-spacing:0px;fill:#bfbfbf;fill-opacity:1;stroke:none;font-family:Sans"
       x="-270.36218"
       y="397"
       id="text3181"
       sodipodi:linespacing="125%"
       transform="matrix(0,-1,1,0,0,0)"><tspan
         sodipodi:role="line"
         id="tspan3183"
         x="-270.36218"
         y="397">Motor Enable A</tspan></text>
    <text
       xml:space="preserve"
       style="font-size:6px;font-style:normal;font-weight:normal;line-height:125%;letter-spacing:0px;word-spacing:0px;fill:#bfbfbf;fill-opacity:1;stroke:none;font-family:Sans"
       x="-270.36218"
       y="412"
       id="text3185"
       sodipodi:linespacing="125%"
       transform="matrix(0,-1,1,0,0,0)"><tspan
         sodipodi:role="line"
         id="tspan3187"
         x="-270.36218"
         y="412">Motor Enable B</tspan></text>
    <text
       xml:space="preserve"
       style="font-size:6px;font-style:normal;font-weight:normal;line-height:125%;letter-spacing:0px;word-spacing:0px;fill:#bfbfbf;fill-opacity:1;stroke:none;font-family:Sans"
       x="-270.36218"
       y="407"
       id="text3259-8"
       sodipodi:linespacing="125%"
       transform="matrix(0,-1,1,0,0,0)"><tspan
         sodipodi:role="line"
         id="tspan3261-8"
         x="-270.36218"
         y="407">Drive Select A</tspan></text>
    <text
       xml:space="preserve"
       style="font-size:6px;font-style:normal;font-weight:normal;line-height:125%;letter-spacing:0px;word-spacing:0px;fill:#bfbfbf;fill-opacity:1;stroke:none;font-family:Sans"
       x="-270.36218"
       y="392"
       id="text3210"
       sodipodi:linespacing="125%"
       transform="matrix(0,-1,1,0,0,0)"><tspan
         sodipodi:role="line"
         id="tspan3212"
         x="-270.36218"
         y="392">Index</tspan></text>
    <text
       xml:space="preserve"
       style="font-size:6px;font-style:normal;font-weight:normal;line-height:125%;letter-spacing:0px;word-spacing:0px;fill:#bfbfbf;fill-opacity:1;stroke:none;font-family:Sans"
       x="-270.36218"
       y="382"
       id="text3982"
       sodipodi:linespacing="125%"
       transform="matrix(0,-1,1,0,0,0)"><tspan
         sodipodi:role="line"
         id="tspan3984"
         x="-270.36218"
         y="382">res</tspan></text>
    <text
       xml:space="preserve"
       style="font-size:6px;font-style:normal;font-weight:normal;line-height:125%;letter-spacing:0px;word-spacing:0px;fill:#bfbfbf;fill-opacity:1;stroke:none;font-family:Sans"
       x="-270.36218"
       y="387"
       id="text3982-0"
       sodipodi:linespacing="125%"
       transform="matrix(0,-1,1,0,0,0)"
       inkscape:transform-center-x="0.63769531"
       inkscape:transform-center-y="-7.706543"><tspan
         sodipodi:role="line"
         id="tspan3984-6"
         x="-270.36218"
         y="387">res</tspan></text>
    <text
       xml:space="preserve"
       style="font-size:6px;font-style:normal;font-weight:normal;line-height:125%;letter-spacing:0px;word-spacing:0px;fill:#bfbfbf;fill-opacity:1;stroke:none;font-family:Sans"
       x="-270.36218"
       y="427"
       id="text4007"
       sodipodi:linespacing="125%"
       transform="matrix(0,-1,1,0,0,0)"><tspan
         sodipodi:role="line"
         id="tspan4009"
         x="-270.36218"
         y="427">Write Data</tspan></text>
    <text
       xml:space="preserve"
       style="font-size:6px;font-style:normal;font-weight:normal;line-height:125%;letter-spacing:0px;word-spacing:0px;fill:#bfbfbf;fill-opacity:1;stroke:none;font-family:Sans"
       x="-270.36218"
       y="432"
       id="text4011"
       sodipodi:linespacing="125%"
       transform="matrix(0,-1,1,0,0,0)"><tspan
         sodipodi:role="line"
         id="tspan4013"
         x="-270.36218"
         y="432">Write Gate</tspan></text>
    <text
       xml:space="preserve"
       style="font-size:6px;font-style:normal;font-weight:normal;line-height:125%;letter-spacing:0px;word-spacing:0px;fill:#bfbfbf;fill-opacity:1;stroke:none;font-family:Sans"
       x="-270.36218"
       y="437"
       id="text4015"
       sodipodi:linespacing="125%"
       transform="matrix(0,-1,1,0,0,0)"><tspan
         sodipodi:role="line"
         id="tspan4017"
         x="-270.36218"
         y="437">Track 00</tspan></text>
    <text
       xml:space="preserve"
       style="font-size:6px;font-style:normal;font-weight:normal;line-height:125%;letter-spacing:0px;word-spacing:0px;fill:#bfbfbf;fill-opacity:1;stroke:none;font-family:Sans"
       x="-270.36218"
       y="442"
       id="text4019"
       sodipodi:linespacing="125%"
       transform="matrix(0,-1,1,0,0,0)"><tspan
         sodipodi:role="line"
         id="tspan4021"
         x="-270.36218"
         y="442">Write Protect</tspan></text>
    <text
       xml:space="preserve"
       style="font-size:6px;font-style:normal;font-weight:normal;line-height:125%;letter-spacing:0px;word-spacing:0px;fill:#bfbfbf;fill-opacity:1;stroke:none;font-family:Sans"
       x="-270.36218"
       y="447"
       id="text4023"
       sodipodi:linespacing="125%"
       transform="matrix(0,-1,1,0,0,0)"><tspan
         sodipodi:role="line"
         id="tspan4025"
         x="-270.36218"
         y="447">Read Data</tspan></text>
    <text
       xml:space="preserve"
       style="font-size:6px;font-style:normal;font-weight:normal;line-height:125%;letter-spacing:0px;word-spacing:0px;fill:#bfbfbf;fill-opacity:1;stroke:none;font-family:Sans"
       x="-270.36218"
       y="452"
       id="text4027"
       sodipodi:linespacing="125%"
       transform="matrix(0,-1,1,0,0,0)"><tspan
         sodipodi:role="line"
         id="tspan4029"
         x="-270.36218"
         y="452">Side Select</tspan></text>
    <text
       xml:space="preserve"
       style="font-size:6px;font-style:normal;font-weight:normal;line-height:125%;letter-spacing:0px;word-spacing:0px;fill:#bfbfbf;fill-opacity:1;stroke:none;font-family:Sans"
       x="-270.36218"
       y="457"
       id="text4031"
       sodipodi:linespacing="125%"
       transform="matrix(0,-1,1,0,0,0)"><tspan
         sodipodi:role="line"
         id="tspan4033"
         x="-270.36218"
         y="457">Disk Change</tspan></text>
    <path
       style="fill:none;stroke:#000000;stroke-width:1px;stroke-linecap:round;stroke-linejoin:round;stroke-opacity:1"
       d="m 420,272.36218 40,0 0,15 -90,0 0,-15 40,0"
       id="path3082"
       inkscape:connector-curvature="0" />
  </g>
</svg>
